<svg xmlns="http://www.w3.org/2000/svg" viewBox="0 0 275.55 326.69"><title>Commuting image</title><path d="M37.13,289.25C-15.19,228.83-11.79,90.43,44.62,65.5c48.72-21.53,108-20.3,177,49.45,52.39,52.91,74.86,122.32,29.51,167.32C202,331.05,88.23,348.27,37.13,289.25Z" fill="#eaeaea"/><line x1="95.99" y1="93.19" x2="96.99" y2="93.19" fill="none" stroke="#5f7682" stroke-linecap="round" stroke-miterlimit="10" stroke-width="5"/><path d="M107.06,93.19h16.78a31.94,31.94,0,0,1,31.94,31.94h0a32,32,0,0,1-31.94,32H95.45a52.33,52.33,0,1,0,0,104.65H215.6" fill="none" stroke="#5f7682" stroke-linecap="round" stroke-miterlimit="10" stroke-width="5" stroke-dasharray="2.01 10.07"/><line x1="220.63" y1="261.73" x2="221.63" y2="261.73" fill="none" stroke="#5f7682" stroke-linecap="round" stroke-miterlimit="10" stroke-width="5"/><path d="M271,172.36c0,43.06-45.55,88.95-49.78,88.95s-49.79-45.89-49.79-88.95a49.79,49.79,0,1,1,99.57,0Z" fill="#003c57"/><circle cx="221.18" cy="172.36" r="41.99" fill="#fff"/><path d="M245.53,195.08v-48a1.38,1.38,0,0,0-1.38-1.38H218a1.38,1.38,0,0,0-1.38,1.38v48h-2.32V167.56a1.38,1.38,0,0,0-1.38-1.38H198a1.38,1.38,0,0,0-1.38,1.38v27.52h-2.55V199h54.17v-3.91Zm-38.76-25.44h4.53v4.53h-4.53Zm0,7.44h4.53v4.53h-4.53Zm-7.09-7.44h4.53v4.53h-4.53Zm0,7.44h4.53v4.53h-4.53Zm37.16-25.7h5.39v5.39h-5.39Zm0,8.85h5.39v5.4h-5.39Zm0,8.86h5.39v5.39h-5.39Zm0,8.85h5.39v5.4h-5.39Zm-8.44-26.56h5.39v5.39H228.4Zm0,8.85h5.39v5.4H228.4Zm0,8.86h5.39v5.39H228.4Zm0,8.85h5.39v5.4H228.4ZM220,151.38h5.39v5.39H220Zm0,8.85h5.39v5.4H220Zm0,8.86h5.39v5.39H220Zm0,8.85h5.39v5.4H220Zm7.89,9.6h6.48v7.54h-6.48Z" fill="#00a5a1"/><path d="M130.07,33.6c0,29.05-30.74,60-33.6,60s-33.59-31-33.59-60a33.6,33.6,0,1,1,67.19,0Z" fill="#003c57"/><circle cx="96.47" cy="33.6" r="28.34" fill="#fff"/><path d="M114.76,31.29h0L107.53,24V15.68a.77.77,0,0,0-.76-.77h-4.11a.76.76,0,0,0-.76.77v2.74L97.57,14.1c-.61-.61-.73-.72-1.1-.74s-.48.13-1.09.74L91,18.42,85.42,24l-7.21,7.22h0a.78.78,0,0,0-.2.52.76.76,0,0,0,.74.76h3.77v19a.86.86,0,0,0,.85.85H98.85V40.9a.14.14,0,0,1,.14-.14h6.6a.15.15,0,0,1,.15.14V52.38h3.87a.85.85,0,0,0,.84-.85v-19h3.78a.76.76,0,0,0,.74-.76A.74.74,0,0,0,114.76,31.29ZM89.93,40.4H86.71a.18.18,0,0,1-.18-.18V37h3.4Zm0-4.45h-3.4V32.74a.18.18,0,0,1,.18-.19h3.22Zm4.76,4.27a.18.18,0,0,1-.19.18H91.29V37h3.4Zm0-4.27h-3.4v-3.4H94.5a.18.18,0,0,1,.19.19Z" fill="#00a5a1"/></svg>