<svg xmlns="http://www.w3.org/2000/svg" viewBox="0 0 39.64 39.64"><title>Commute time icon</title><path d="M19.82,0A19.82,19.82,0,1,0,39.64,19.82,19.82,19.82,0,0,0,19.82,0Zm-1,3h2V7h-2ZM7,20.83H3v-2H7ZM18.81,36.67v-4h2v4ZM31.1,29.53a1.56,1.56,0,0,1-1.19.54,1.52,1.52,0,0,1-1-.38L18.81,21h0a.47.47,0,0,1-.1-.1l0,0-.06-.07-.05-.07,0,0a.56.56,0,0,0-.05-.08.17.17,0,0,1,0-.05.36.36,0,0,1,0-.09l0-.05a.24.24,0,0,1,0-.08l0-.07s0,0,0-.07a.19.19,0,0,1,0-.08s0,0,0-.06,0-.06,0-.09V19.9a.38.38,0,0,1,0-.1s0,0,0-.06v-.09s0-.06,0-.09a.13.13,0,0,1,0-.06l0-.14h0v0L21.27,10a1.57,1.57,0,0,1,3,.94l-2.63,8.39,9.3,8A1.57,1.57,0,0,1,31.1,29.53Zm1.56-8.7v-2h4v2Z" fill="#fff"/></svg>